# xmcd CD database file
#
# Track frame offsets:
#	150
#	17321
#	37780
#	44886
#
# Disc length: 823 seconds
#
# Revision: 0
# Processed by: cddbd v1.5.1PL2 Copyright (c) Steve Scherf et al.
# Submitted via: CDex 1.51
#
DISCID=25033504
DTITLE=RED ZONE!!! - TSUBAME SKETCH
DYEAR=2005
DGENRE=J-POP
TTITLE0=RED ZONE!!!
TTITLE1=つくしんぼう
TTITLE2=RED ZONE!!!(TV edit version)
TTITLE3=RED ZONE!!!(instrumental version)
EXTD=YEAR: 2005
EXTT0=
EXTT1=
EXTT2=
EXTT3=
PLAYORDER=
